<?xml version="1.0" encoding="UTF-8"?>
<svg width="777px" height="170px" viewBox="0 0 777 170" version="1.1" xmlns="http://www.w3.org/2000/svg" xmlns:xlink="http://www.w3.org/1999/xlink">
    <!-- Generator: Sketch 55.2 (78181) - https://sketchapp.com -->
    <title>编组</title>
    <desc>Created with Sketch.</desc>
    <defs>
        <polygon id="path-1" points="0.0001 0.3266 140.5571 0.3266 140.5571 165 0.0001 165"></polygon>
        <polygon id="path-3" points="0.1107 0.05 140.6677 0.05 140.6677 164.7232 0.1107 164.7232"></polygon>
        <polygon id="path-5" points="0 170.95 776.43 170.95 776.43 1 0 1"></polygon>
    </defs>
    <g id="页面1" stroke="none" stroke-width="1" fill="none" fill-rule="evenodd">
        <g id="编组" transform="translate(0.000000, -1.000000)">
            <g transform="translate(0.000000, 5.950000)">
                <mask id="mask-2" fill="white">
                    <use xlink:href="#path-1"></use>
                </mask>
                <g id="Clip-2"></g>
                <path d="M24.1161,24.4426 L24.1161,24.4426 L0.0001,0.3266 L0.0001,82.6636 C0.0001,103.7346 8.0391,124.8066 24.1161,140.8846 C56.2701,173.0386 108.4031,173.0386 140.5571,140.8846 L24.1161,24.4426 Z" id="Fill-1" fill="#000000" mask="url(#mask-2)"></path>
            </g>
            <g transform="translate(33.000000, 0.950000)">
                <mask id="mask-4" fill="white">
                    <use xlink:href="#path-3"></use>
                </mask>
                <g id="Clip-4"></g>
                <path d="M116.5527,140.6072 L116.5527,140.6072 L140.6677,164.7232 L140.6677,82.3862 C140.6677,61.3152 132.6297,40.2432 116.5527,24.1652 C84.3977,-7.9888 32.2657,-7.9888 0.1107,24.1652 L116.5527,140.6072 Z" id="Fill-3" fill="#000000" mask="url(#mask-4)"></path>
            </g>
            <path d="M266.3701,92.3128 C266.3701,102.5738 269.8161,111.0108 276.7111,117.6238 C283.5641,124.2368 291.4801,127.5428 300.4591,127.5428 C310.1981,127.5428 318.4141,124.1768 325.1081,117.4428 C331.8001,110.6298 335.1481,102.3328 335.1481,92.5528 C335.1481,82.6538 331.8421,74.3578 325.2281,67.6638 C318.6541,60.9298 310.5171,57.5638 300.8191,57.5638 C291.1591,57.5638 283.0031,60.9298 276.3501,67.6638 C269.6961,74.3168 266.3701,82.5338 266.3701,92.3128 M252.2421,92.1328 C252.2421,79.0668 257.0311,67.8438 266.6111,58.4648 C276.1491,49.0868 287.6121,44.3968 301.0001,44.3968 C314.2261,44.3968 325.5681,49.1268 335.0271,58.5858 C344.5261,68.0448 349.2761,79.4078 349.2761,92.6738 C349.2761,106.0208 344.5061,117.3438 334.9681,126.6418 C325.3881,135.9808 313.8241,140.6498 300.2781,140.6498 C288.2941,140.6498 277.5321,136.5008 267.9941,128.2048 C257.4911,119.0268 252.2421,107.0028 252.2421,92.1328" id="Fill-5" fill="#000000"></path>
            <path d="M364.3066,80.409 L377.8936,80.409 L377.8936,85.82 C382.6216,81.13 387.9526,78.786 393.8856,78.786 C400.6986,78.786 406.0086,80.93 409.8176,85.219 C413.1036,88.866 414.7466,94.818 414.7466,103.074 L414.7466,138.966 L401.1606,138.966 L401.1606,106.261 C401.1606,100.489 400.3576,96.502 398.7546,94.297 C397.1926,92.053 394.3456,90.93 390.2176,90.93 C385.7276,90.93 382.5416,92.413 380.6596,95.379 C378.8146,98.305 377.8936,103.415 377.8936,110.71 L377.8936,138.966 L364.3066,138.966 L364.3066,80.409 Z" id="Fill-7" fill="#000000"></path>
            <polygon id="Fill-9" fill="#000000" points="445.7685 93.0342 445.7685 138.9662 432.2425 138.9662 432.2425 93.0342 426.4705 93.0342 426.4705 80.4092 432.2425 80.4092 432.2425 58.9462 445.7685 58.9462 445.7685 80.4092 456.2895 80.4092 456.2895 93.0342"></polygon>
            <path d="M477.3925,109.5071 C477.3925,115.3591 478.9545,119.9891 482.0815,123.3951 C485.2875,126.8421 489.5155,128.5651 494.7665,128.5651 C500.0575,128.5651 504.2855,126.8621 507.4525,123.4551 C510.6185,120.0491 512.2025,115.4991 512.2025,109.8081 C512.2025,104.1171 510.6185,99.5681 507.4525,96.1601 C504.2455,92.7141 500.0165,90.9901 494.7665,90.9901 C489.5965,90.9901 485.4075,92.7141 482.2025,96.1601 C478.9955,99.6081 477.3925,104.0571 477.3925,109.5071 M463.5645,109.2671 C463.5645,100.8101 466.5895,93.6161 472.6425,87.6841 C478.6945,81.7521 486.0685,78.7861 494.7665,78.7861 C503.5025,78.7861 510.9185,81.7721 517.0115,87.7441 C523.0235,93.7161 526.0295,101.0511 526.0295,109.7471 C526.0295,118.5251 523.0025,125.8801 516.9515,131.8121 C510.8585,137.7041 503.3825,140.6491 494.5265,140.6491 C485.7485,140.6491 478.3935,137.6431 472.4615,131.6311 C466.5295,125.7001 463.5645,118.2451 463.5645,109.2671" id="Fill-11" fill="#000000"></path>
            <mask id="mask-6" fill="white">
                <use xlink:href="#path-5"></use>
            </mask>
            <g id="Clip-14"></g>
            <polygon id="Fill-13" fill="#000000" mask="url(#mask-6)" points="540.338 138.966 553.865 138.966 553.865 37.423 540.338 37.423"></polygon>
            <path d="M582.0615,109.5071 C582.0615,115.3591 583.6235,119.9891 586.7505,123.3951 C589.9565,126.8421 594.1845,128.5651 599.4355,128.5651 C604.7265,128.5651 608.9545,126.8621 612.1215,123.4551 C615.2875,120.0491 616.8715,115.4991 616.8715,109.8081 C616.8715,104.1171 615.2875,99.5681 612.1215,96.1601 C608.9145,92.7141 604.6855,90.9901 599.4355,90.9901 C594.2655,90.9901 590.0765,92.7141 586.8715,96.1601 C583.6645,99.6081 582.0615,104.0571 582.0615,109.5071 M568.2335,109.2671 C568.2335,100.8101 571.2585,93.6161 577.3115,87.6841 C583.3635,81.7521 590.7375,78.7861 599.4355,78.7861 C608.1715,78.7861 615.5875,81.7721 621.6805,87.7441 C627.6925,93.7161 630.6985,101.0511 630.6985,109.7471 C630.6985,118.5251 627.6715,125.8801 621.6205,131.8121 C615.5275,137.7041 608.0515,140.6491 599.1955,140.6491 C590.4175,140.6491 583.0625,137.6431 577.1315,131.6311 C571.1985,125.7001 568.2335,118.2451 568.2335,109.2671" id="Fill-15" fill="#000000" mask="url(#mask-6)"></path>
            <path d="M688.6542,109.8079 C688.6542,104.1169 687.1312,99.5679 684.0852,96.1609 C680.9982,92.6739 677.0502,90.9299 672.2412,90.9299 C667.1102,90.9299 663.0612,92.8339 660.0972,96.6409 C657.4112,100.0489 656.0692,104.4569 656.0692,109.8679 C656.0692,115.1989 657.4112,119.5679 660.0972,122.9739 C663.0222,126.7019 667.0712,128.5649 672.2412,128.5649 C677.4122,128.5649 681.5002,126.6819 684.5062,122.9139 C687.2712,119.5079 688.6542,115.1389 688.6542,109.8079 L688.6542,109.8079 Z M701.6402,137.5829 C701.6402,140.3489 701.5502,142.7839 701.3692,144.8879 C701.1902,146.9919 700.9372,148.8459 700.6182,150.4489 C699.6562,154.8579 697.7712,158.6449 694.9662,161.8119 C689.6762,167.9039 682.4012,170.9499 673.1432,170.9499 C665.3282,170.9499 658.8942,168.8459 653.8442,164.6369 C648.6332,160.3089 645.6272,154.3169 644.8272,146.6619 L658.4142,146.6619 C658.9342,149.5469 659.7972,151.7719 660.9992,153.3349 C663.8032,156.9819 667.8922,158.8059 673.2632,158.8059 C683.1632,158.8059 688.1132,152.7339 688.1132,140.5889 L688.1132,132.4129 C682.7422,137.9049 676.5502,140.6499 669.5362,140.6499 C661.5582,140.6499 655.0262,137.7639 649.9362,131.9919 C644.8052,126.1409 642.2412,118.8259 642.2412,110.0479 C642.2412,101.5109 644.6262,94.2569 649.3952,88.2849 C654.5252,81.9529 661.3002,78.7859 669.7172,78.7859 C677.0912,78.7859 683.2222,81.5319 688.1132,87.0219 L688.1132,80.4089 L701.6402,80.4089 L701.6402,137.5829 Z" id="Fill-16" fill="#000000" mask="url(#mask-6)"></path>
            <polygon id="Fill-17" fill="#000000" mask="url(#mask-6)" points="737.1708 128.0843 710.8388 80.4093 726.5298 80.4093 744.4448 114.0763 761.1588 80.4093 776.4298 80.4093 729.7758 170.8293 714.3248 170.8293"></polygon>
        </g>
    </g>
</svg>